<svg enable-background="new 0 0 400 400" viewBox="0 0 400 400" xmlns="http://www.w3.org/2000/svg"><g fill="#010000"><path d="m206.47 370.16c-3.12-.35-6.21-.28-9.04-1.09-4.81-1.38-9.52-3.17-14.15-5.09-1.8-.74-3.22-2.38-4.92-3.43-12.31-7.58-18.91-19.12-23.37-32.46-2.91-8.72-4.99-17.3-3.64-26.59.51-3.45.12-7.17-.57-10.63-.87-4.35-2.53-5.35-6.73-4.09-5.22 1.57-10.21 3.92-15.41 5.58-10.11 3.23-20.49 4.42-31.09 3.42-2.4-.23-3.88-1.41-5.12-3.64-1.13-2.02-3.13-3.67-5.02-5.13-1.67-1.29-2.47-2.32-1.89-4.67 1.23-4.98 1.94-10.09 2.97-15.13.24-1.17.83-2.28 1.38-3.36 1.33-2.56 2.94-5 4.06-7.65.97-2.28 2.48-3.7 4.8-3.28 2.63.48 6-.14 7.04 3.75 1.07 3.99 2.61 7.85 3.62 11.86.74 2.93 2.46 4.68 5.13 5.63 10.46 3.74 21.03 3.73 31.62.63 7.87-2.3 10.35-14.47 8.3-20.14-.28-.79-1.29-1.63-2.13-1.85-3.53-.94-7.14-1.59-10.69-2.47-3.3-.82-6.61-1.63-9.81-2.75-3.86-1.35-7.68-2.87-11.38-4.62-1.25-.6-2.4-1.97-3.02-3.26-2.63-5.5-2.31-11.35-1.23-17.11 1.29-6.91 3.04-13.75 4.38-20.65.47-2.43 1.75-3.97 3.98-4.33 3.82-.62 7.72-.78 11.56-1.31 1.2-.16 3.23-.77 3.29-1.34.14-1.37-.22-3.41-1.17-4.15-2.19-1.69-4.86-2.77-7.82-4.36.36-3.09.42-6.97 3.48-10.02.93-.92 1.51-2.2 2.2-3.35 2.23-3.74 6.22-5.28 9.6-2.62 5.15 4.04 10.31 2.74 15.92 1.94 14.38-2.05 28.8-4.76 43.25-5.06 15.93-.33 31.42 4.06 46.27 9.97 3.68 1.46 7.17 3.7 10.34 6.12 8.65 6.63 11.01 15.35 7.34 25.64-.53 1.47-1.08 2.94-1.64 4.4-1.6 4.17-4.01 7.46-8.15 9.71-13.44 7.32-26.55 15.36-41.59 19.15-9.86 2.48-19.76 4.83-29.73 6.85-3.75.76-5.86 2.71-7.38 5.94-3.37 7.17-4.17 14.86-4.33 22.57-.19 8.71.18 17.44.51 26.15.16 4.2 1.72 5.11 5.66 3.34 7.79-3.5 13.88-9.28 19.8-15.24.29-.29.62-.82.54-1.16-.84-3.78 2.04-4.69 4.49-5.92 7.65-3.85 8.91-4.2 6.87-15.16-.96-5.18-1.39-10.21.71-15.13.53-1.23 1.7-2.19 2.58-3.27 1.07.89 2.38 1.6 3.17 2.69 3.37 4.68 5.67 9.86 6.68 15.58.25 1.42.67 2.83 1.14 4.2 1.68 4.96 3.28 5.77 8.15 4.22 6.49-2.07 13.04-3.99 19.46-6.27 7.91-2.81 12.96-8.3 14.75-16.66.58-2.71 1.26-5.44 2.35-7.97.81-1.9 2.44-2.62 4.14-.56 3.42 4.12 7.19 8.01 10.22 12.4 4.05 5.85 2.91 14.63-1.92 19.88-7.8 8.49-17.63 12.7-28.91 14.07-6.66.81-13.3 1.79-19.92 2.87-1.31.22-2.8.97-3.69 1.95-10.57 11.74-24.15 18.11-39.06 22.19-2.04.56-4.25.98-5.98 2.09-2.28 1.47-4.48 3.3-6.12 5.44-1.61 2.1-1.32 4.24 1.08 6.35 15.58 13.67 34.07 20 54.31 22.37 15.98 1.87 31.37-1.7 46.89-4.38 7.04-1.22 14.13-2.21 21.22-3.06 1.24-.15 2.63.95 3.95 1.47-.78 1.31-1.25 3.16-2.4 3.85-21.25 12.81-44.21 20.57-69.07 21.19-9.4.23-18.87-1.94-28.28-3.19-1.13-.11-2.11-1.36-2.83-1.86zm24.07-156.42c-1.25-.22-2.65-.44-4.04-.72-6.76-1.37-13.29.61-19.91 1.29-8.89.91-17.81 1.55-26.71 2.45-6.57.67-6.57.78-9.27-5.12-1.35-2.95-3.77-3.72-6.8-3.9-3.03-.17-3.13 2.21-3.61 3.92-1.29 4.56-4.03 7.14-8.71 8.12-2.34.49-4.49 1.88-6.72 2.88-2.75 1.23-2.87 3.79-2.99 6.25-.12 2.48 1.94 2.93 3.7 3.66 1.03.42 2.11.88 2.93 1.6 2.17 1.89 4.45 1.87 7.16 1.3 7.29-1.51 14.55-3.5 22.15-2.18 6.13 1.06 12.2.61 18.3-.67 6.01-1.26 12.14-3.04 18.15-2.83 6.43.22 10.29-2.23 13.96-6.94 2.17-2.79 3.35-5.36 2.41-9.11zm4.39-19.15c-2.09-4.14-5.27-5.51-9.03-5.68-13.39-.62-26.78-1.16-40.17-1.7-3.12-.13-6.37-.71-9.34-.06-8.17 1.79-16.23 4.09-24.31 6.28-.83.22-1.96.95-2.13 1.64-.58 2.37-1.07 4.82-1.09 7.25-.03 3.61.93 4.2 4.45 3.7 16.92-2.38 33.84-4.73 50.77-7.09 10.15-1.42 20.29-2.85 30.85-4.34z"/><path d="m277.9 149.33c-17.96 6.82-63.54 9.56-69.24 5.13-4.33.22-8.05 1.44-10.93.38-10.29-3.79-20.73-2.46-31.18-2.04-6.26.25-12.5.82-18.76.97-2.37.06-4.81-.47-7.13-1.07-5.65-1.48-11.11-.58-16.52 1.02-8.94 2.64-17.45 2.34-25.25-3.37-.27-.19-.49-.45-.17-.15 2.07-2.32 4.01-4.64 6.12-6.8.99-1.01 2.21-1.93 3.5-2.51 11.85-5.38 24.41-7.99 37.31-8.86 4.42-.3 8.91.57 13.37.73 3.11.11 5.92-.84 8.28-3.48-.9-.69-1.65-1.3-2.45-1.86-15.17-10.49-30.31-21.05-45.6-31.36-1.61-1.08-4.29-1.28-6.3-.91-4.82.87-9.59 2.13-14.28 3.57-4.42 1.36-8.1-.04-11.7-2.29-1.76-1.1-2.21-2.45-1.43-4.55 1.52-4.05 3.56-7.23 8.2-8.34 3.46-.82 6.83-2.16 10.08-3.62 5.64-2.52 11.36-3.81 17.55-2.71 1.35.24 2.98.05 4.23-.52 10-4.55 20.66-5.4 31.4-5.92 24.01-1.16 48.01-2.58 72.04-3.35 12.64-.41 24.84 2.76 36.63 7.22 3.56 1.35 6.82 3.31 8.87 7.25-4 1.01-7.81 1.74-11.46 2.96-3.03 1.01-5.97 2.4-8.74 3.98-1.6.91-1.98 2.42-.4 4.16 4.26 4.69 4.53 10.28 2.94 16.06-.25.9-1.46 1.9-2.42 2.18-2.24.65-4.59 1.01-6.92 1.26-7.69.81-14.55 3.82-21.44 7.18-6.49 3.17-13.42 5.44-20.16 8.09-1.11.44-2.23.84-3.34 1.26v1.16c2.87.39 5.82 1.42 8.6 1.07 11.36-1.43 22.65 0 33.74 1.61 8.72 1.26 17.12 4.9 25.55 7.82 3.83 1.35 6.37 4.35 7.41 8.65zm-120.07-57.27c1.98 6 5.51 9.43 9.41 12.41 7.89 6.05 15.93 11.9 23.99 17.72.71.52 2.08.57 2.99.3 5.58-1.66 10.21-4.92 14.38-8.9 5.82-5.55 11.72-11.01 17.5-16.61 1.08-1.05 1.97-2.45 2.52-3.86.94-2.38.1-4.25-2.47-4.87-1.72-.42-3.53-.7-5.29-.63-3.79.14-7.57.66-11.36.83-13.37.61-26.74 1.04-40.1 1.76-3.7.21-7.36 1.16-11.57 1.85z"/><path d="m218.88 45.91c-6.96.9-13.93 1.76-20.89 2.73-.92.13-1.75.85-2.65 1.23-1.04.44-2.11 1.17-3.15 1.14-4.13-.13-8.26-.36-12.37-.82-4.63-.52-9.11-.38-13.48 1.44-1.74.73-3.72.91-5.43 1.69-6.58 2.98-12.7 2.7-19.4-.5-3.76-1.8-8.74-1.48-13.15-1.39-4.07.08-6.97-1.35-9.6-4.23-3.76-4.1-3.31-6.14.93-9.41 7.05-5.42 15.47-5.47 23.53-6.6 16.15-2.27 32.33-4.91 48.58-5.73 16.68-.84 33.32.99 48.09 10.26.94.59 1.94 1.18 2.66 1.99 1.49 1.68 1.85 3.65-.61 4.59-4.11 1.57-8.3 3.14-12.61 3.95-3.35.64-6.91.13-10.38.13-.02-.16-.05-.31-.07-.47z"/></g><path d="m361.2 9.6.8-1c.9.7 1.9 1.4 2.9 2.3l-.9 1.1c-1-1-2-1.8-2.8-2.4zm.5 10.6c.9-2.1 1.6-4.3 2.3-6.7.4.2.8.4 1.3.6-.7 2.1-1.5 4.3-2.2 6.6zm.4-15.2.9-.9c1 .8 2 1.6 2.8 2.4l-1 1c-.9-.9-1.8-1.7-2.7-2.5zm12.5-1.2h1.2v1.4h2.7v1.1h-2.7v2.7h-1.2v-.6h-1.8v1.3h4.9v3.8h-1.2v-.5h-3.7c0 .4-.1.9-.1 1.2h5.1v1h-5.2c0 .5-.1.9-.2 1.2h6v1h-5.2c1.1 1.3 2.9 2 5.5 2.2-.4.4-.7.8-.9 1.3-2.9-.5-4.8-1.6-5.7-3.5h-.1c-.8 1.7-2.7 2.9-5.9 3.6-.2-.4-.6-.8-.9-1.1 2.8-.6 4.6-1.4 5.4-2.5h-4.8v-1h5.3c.1-.3.2-.7.2-1.2h-4.9v-1h5c0-.4 0-.8.1-1.2h-3.5v.5h-1.2v-3.8h4.9v-1.3h-1.8v.5h-1.2v-2.7h-2.7v-1h2.6v-1.4h1.2v1.4h4.7v-1.4zm-6.6 8.3h3.6c0-.4 0-.9 0-1.4h-3.6zm1.9-4.6h4.7v-1.3h-4.7zm6.6 3.2h-3.7v1.4h3.7z" fill="#fbfcfa"/><path d="m385.3 3.8h1.3v2.2h2.8v-2.2h1.3v2.2h4.1v9.1h1.7v1.3h-16.9v-1.3h1.7v-9.1h4.1v-2.2zm.4 13.1.7 1.2c-1.8.9-3.8 1.9-6 2.9-.2-.4-.5-.8-.8-1.3 2.3-1 4.3-1.9 6.1-2.8zm-3.1-6.4h2.8v-3.2h-2.8zm0 4.6h2.8v-3.3h-2.8zm4-4.6h2.8v-3.2h-2.8zm0 4.6h2.8v-3.3h-2.8zm3.7 1.9c2.1.9 4.1 1.8 6.1 2.7l-.7 1.3c-2.2-1.1-4.2-2-6.1-2.9zm3.2-9.7h-2.8v3.2h2.8zm-2.8 7.8h2.8v-3.3h-2.8z" fill="#fbfcfa"/></svg>