<svg enable-background="new 0 0 400 400" viewBox="0 0 400 400" xmlns="http://www.w3.org/2000/svg"><path d="m378.6 9.2.8-1c.9.7 1.9 1.4 2.9 2.3l-.9 1.1c-1.1-.9-2-1.7-2.8-2.4zm.5 10.7c.9-2.1 1.6-4.3 2.3-6.7.4.2.8.4 1.3.6-.7 2.1-1.5 4.3-2.2 6.6zm.4-15.2.9-.9c1 .8 2 1.6 2.8 2.4l-1 1c-1-.9-1.9-1.8-2.7-2.5zm12.5-1.3h1.2v1.4h2.7v1.1h-2.7v2.7h-1.2v-.5h-1.8v1.3h4.9v3.8h-1.2v-.5h-3.7c0 .4-.1.9-.1 1.2h5.1v1h-5.2c0 .5-.1.9-.2 1.2h6v1h-5.2c1.1 1.3 2.9 2 5.5 2.2-.4.4-.7.8-.9 1.3-2.9-.5-4.8-1.6-5.7-3.5h-.1c-.8 1.7-2.7 2.9-5.9 3.6-.2-.4-.6-.8-.9-1.1 2.8-.6 4.6-1.4 5.4-2.5h-4.8v-1h5.3c.1-.3.2-.7.2-1.2h-4.9v-1h5c0-.4 0-.8.1-1.2h-3.6v.5h-1.2v-3.8h4.9v-1.3h-1.8v.5h-1.2v-2.7h-2.6v-1.1h2.6v-1.4h1.2v1.4h4.7v-1.4zm-6.7 8.4h3.6c0-.4 0-.9 0-1.4h-3.6zm1.9-4.7h4.7v-1.2h-4.7zm6.7 3.3h-3.7v1.4h3.7z" fill="#fcfafa"/><path d="m384.7 21.4h1.3v2.2h2.8v-2.2h1.3v2.2h4.1v9.1h1.7v1.3h-16.9v-1.3h1.7v-9.1h4.1v-2.2zm.3 13.2.7 1.2c-1.8.9-3.8 1.9-6 2.9-.2-.4-.5-.8-.8-1.3 2.4-1 4.4-2 6.1-2.8zm-3.1-6.5h2.8v-3.2h-2.8zm0 4.6h2.8v-3.3h-2.8zm4.1-4.6h2.8v-3.2h-2.8zm0 4.6h2.8v-3.3h-2.8zm3.6 1.9c2.1.9 4.1 1.8 6.1 2.7l-.7 1.3c-2.2-1.1-4.2-2-6.1-2.9zm3.3-9.7h-2.8v3.2h2.8zm-2.8 7.8h2.8v-3.3h-2.8z" fill="#fcfafa"/><g fill="#010000"><path d="m293.06 105.49c-4.13.15-7.62-.24-10.65-3.61-2.94-3.26-6.33-6.33-11.23-6.76-3.21-.28-5.69.58-6.44 3.8-1.01 4.31-1.68 8.71-2.26 13.11-.32 2.48.98 4.34 3.37 5.17 5.16 1.78 10.39 3.36 15.53 5.2 3.17 1.13 6.23 2.58 9.34 3.89.04.55.07 1.1.11 1.65-5.47 3.06-10.94 6.14-16.43 9.18-.77.43-1.66.65-2.5.97-9.13 3.54-12.4 8.95-11.02 18.74.17 1.23 1.32 2.8 2.43 3.31 2.4 1.09 4.13 2.47 4.85 5.07.23.83.66 1.95 1.31 2.25 3.4 1.57 3 4.45 2.98 7.37-.07 8.84.14 17.69-.11 26.52-.09 3.47-.89 6.97-1.74 10.37-.72 2.91-.01 4.4 2.86 4.59 5.87.39 11.52 6.06 11.61 12.14.16 10.52.55 21.08-.21 31.55-.3 4.13-3.13 8.23-5.34 12.03-2.12 3.65-5.07 6.8-7.41 10.34-1.86 2.82-2.32 5.89-.97 9.25 2.45 6.08 4.79 12.22 6.94 18.42.98 2.82 1.4 5.84 2.04 8.78 3.34 15.27 6.62 30.56 10.07 45.8.45 1.97.15 3.19-1.71 3.47-.91.13-2.27-.5-2.93-1.23-7.95-8.87-13.19-19.39-17.67-30.27-2.11-5.12-3.32-10.61-4.99-15.92-.53-1.69-1.11-3.38-1.85-4.99-2.75-5.97-5.65-11.88-8.33-17.88-1.27-2.86-3.35-3.4-6.2-3.39-4.07.02-8.22.03-12.2-.73-6.91-1.31-13.73-3.12-20.54-4.9-2.12-.55-4.11-1.63-6.12-2.57-1.82-.85-3.54-1.89-5.36-2.72-2.8-1.28-5.1-1.12-7.28 1.63-2.77 3.5-6.03 6.61-9.11 9.85-6.77 7.1-14.64 12.46-24.26 14.89-6.09 1.53-9.91 4.57-10.73 11.42-1.13 9.36-3.89 18.33-9.2 26.34-.68 1.03-.77 2.54-.85 3.84-.3 4.69-.25 9.41-.79 14.07-.34 2.91-1.49 5.72-2.28 8.57-.3-.01-.61-.03-.91-.04-.3-.61-.71-1.2-.9-1.85-1.94-6.88-3.95-13.75-5.7-20.67-.42-1.65-.19-3.56.09-5.29.93-5.85 2.02-11.67 3.06-17.51.16-.88.09-1.98.6-2.59 3.83-4.59 2.53-10.23 3.18-15.43.18-1.46-.7-3.45-1.75-4.58-5.08-5.47-11.04-10.22-13.9-17.45-.62-1.55-1.49-3.1-1.66-4.72-.96-8.9-3.47-17.76-.59-27.29 3.1 0 6.53-.12 9.93.09.76.05 1.59 1.13 2.13 1.91 2.54 3.68 4.89 7.5 7.52 11.11 1.59 2.19 3.58 4.1 5.69 6.48 3.1-5.09 3.45-9.64 2.12-14.48-1.03-3.76-2.48-7.54-2.65-11.36-.15-3.64.64-7.52 1.9-10.97 1.3-3.57 2.07-6.52-1.07-9.44-1.29-1.21-2.12-2.9-3.35-4.18-5.53-5.72-8.98-12.45-9.93-20.36-.3-2.48-1.55-3.66-3.87-4.33-2.1-.61-4.98-1.12-5.91-2.65-1.87-3.08-2.74-6.8-3.79-10.33-.15-.52.88-1.59 1.58-2.12 5.65-4.3 11.98-6.82 19.11-7.28 1.43-.09 2.9-.39 4.26-.87 3.65-1.27 4.86-4.84 2.85-8.12-4.68-7.66-4.68-7.67-13.24-5.03-2.56.79-5.09 1.71-7.69 2.37-4.17 1.06-6.22-.51-6.44-4.76-.31-5.97.21-6.82 5.56-9.42 1.41-.68 2.85-1.35 4.11-2.25 2.57-1.85 2.89-4.39 1.63-7.29-.87-2-1.18-4.26-1.68-6.41-.28-1.19-.08-2.65-.71-3.55-.74-1.05-2.11-2.1-3.31-2.24-.8-.1-2.11 1.21-2.64 2.19-2.64 4.8-4.95 9.77-7.65 14.52-1.96 3.46-4.84 5.77-9.21 5.66-3.12-.08-4.45-1.82-3.83-4.49 1.07-4.64 2.43-9.24 4.1-13.69 1.09-2.9 2.85-5.57 4.48-8.24 2.77-4.54 4.73-9.26 5.08-14.69.16-2.59 1.13-5.22 2.16-7.65 4.97-11.73 9.02-23.67 11.95-36.16 1.81-7.71 6.85-14.68 10.53-21.93.85-1.67 2.15-1.85 3.86-.72 5.61 3.68 11.38 7.11 16.96 10.84 1.82 1.22 3.39 2.93 4.78 4.66 3.37 4.17 7.41 7.42 12.3 9.59 7.9 3.53 12.71 10.83 19.43 15.79 6.17 4.56 12.44 8.97 18.33 13.2 4.29-3.63 7.77-6.57 11.25-9.53.51-.43 1.13-.85 1.41-1.41 3.8-7.6 7.6-15.19 11.23-22.87.44-.94-.3-2.38-.26-3.57.36-9.6.22-19.25 1.34-28.76 1-8.5 3.1-9.43 11.52-8.41 5.35.65 8.75 3 10.73 8.43 5.93 16.27 12.53 32.29 18.52 48.54 1.95 5.3 5.67 9.01 9.19 13.01 2.41 2.74 4.48 5.6 3.44 9.98zm-68.93 20.21c-5.88-3.46-11.93-5.4-15.47-10.91-.35-.55-1.35-.68-2.04-1.01-2.65-1.27-5.35-2.45-7.94-3.83-2.45-1.3-4.73-2.92-7.18-4.19-7.62-3.95-15.25-7.88-22.96-11.64-3.08-1.5-6.31-2.88-9.63-3.66-1.71-.4-4.32-.02-5.55 1.1-4.51 4.08-8.61 8.6-12.84 12.97-.21.22-.25.61-.36.93-2.27 6.29-3.26 12.49.24 18.78 1.23 2.21 1.61 4.87 2.59 7.24 1.02 2.45 2.03 5 3.58 7.1.81 1.09 2.88 1.98 4.24 1.81 12.28-1.52 24.81-.75 36.92-3.97 4.04-1.08 7.73.45 11.04 2.77 3.03 2.13 3.19 3.34.73 6.14-3.1 3.53-7.36 4.91-11.75 5.97-7.15 1.74-14.41 3.15-21.42 5.34-6.94 2.16-7.57 4.48-4.24 11.19.45.9.97 1.76 1.43 2.65.86 1.64 2.03 2.17 3.83 1.35 8.7-3.96 18.15-4.46 27.42-5.76 7.41-1.04 14.84-1.86 22.26-2.83 6.29-.82 12.57-1.67 18.84-2.59 2.52-.37 5.05-.79 7.5-1.46 2.04-.56 2.66-1.92 1.88-4.14-1.4-4-2.68-8.07-3.62-12.2-.66-2.87-2.49-3.86-4.8-3.21-3.81 1.09-7.55 2.57-11.14 4.27-3.93 1.87-7.8 3.36-12.23 2.18-1.84-.49-3.65-.75-4.15-3.19-.58-2.83-1.94-5.64 1.15-7.9 1.71-1.25 3.35-2.61 5.1-3.79 2.65-1.79 5.39-3.47 8.57-5.51zm-24.46 108.32c17.22-.19 14.82.08 26.28-5.56 4.71-2.32 9.5-4.48 14.08-7.03 2.4-1.33 5.12-2.9 6.48-5.11 4.54-7.39 9.09-14.87 12.57-22.78 3.11-7.08.13-12.11-7.24-14.49-4.46-1.44-8.99-2.66-13.51-3.89-1.04-.28-2.25-.44-3.28-.21-15.01 3.37-30.5 4.78-44.78 11.08-1.1.49-2.38.57-3.56.87-8.84 2.29-17.81 4.18-26.48 7-6.57 2.13-7.43 4.45-6.57 11.35.07.55.24 1.09.37 1.63 1.94 7.97 6.7 14.29 12 20.25.97 1.09 2.43 2 3.83 2.43 10.33 3.17 20.95 4.37 29.81 4.46zm-38.37 17.46c-.09 1.23-.28 3.06-.37 4.9-.23 4.74-.29 9.48-.65 14.21-.28 3.65-1.22 7.27-1.31 10.92-.11 4.32 1.37 5.46 5.46 4.62 2.15-.45 4.57-.96 6.22-2.25 6.56-5.15 12.89-10.61 19.25-16.02.47-.4.67-1.4.63-2.1-.18-3.43-6.77-10.54-10.19-11.11-6.2-1.03-12.4-2.06-19.04-3.17zm99.96-24.36c-4 4.9-7.47 8.98-10.69 13.25-.67.9-1.03 3.17-.48 3.67 4.2 3.82 6.29 8.51 6.92 14.05.12 1.04.74 2.17 1.46 2.95.87.94 2.54 2.41 3.08 2.13 1.26-.64 2.71-2.1 2.92-3.41 1.43-8.87 1.45-17.78-.68-26.57-.44-1.87-1.48-3.6-2.53-6.07zm-29.18 34.58c-2.34 2.63-4.4 5.12-6.67 7.42-2.02 2.06-1.7 4-.04 5.91 2.7 3.09 6.3 4.63 10.26 5.12 2.16.27 4.42-.68 4.39-3.06-.04-2.64-.59-5.52-1.82-7.81-1.44-2.69-3.85-4.86-6.12-7.58zm-1.63-142.22c4.54-1.69 7.18-5.23 9.85-8.59 1.54-1.93-.51-9.3-2.62-10.42-.5-.27-1.32-.29-1.85-.08-3.29 1.33-6.54 2.75-10.12 4.28 1.59 5 3.14 9.83 4.74 14.81zm-15.32 140.17c3.2-1.65 6.25-3.01 9.06-4.77.93-.58 1.22-2.18 1.8-3.32-1.1-.53-2.37-1.73-3.26-1.49-3.89 1.07-7.66 2.56-11.77 4 1.54 2.05 2.73 3.65 4.17 5.58z"/><path d="m252.34 197.81c-16.18 3.72-31.43 7.43-45.4 14.96-8.87 4.78-18.08 4.16-27.45 2.76-1.32-.2-2.59-.75-3.91-.89-3.4-.37-2.82-3.37-3.33-5.38-.18-.7 1.42-2.23 2.52-2.79 1.55-.79 3.36-1.35 5.09-1.46 9.72-.6 18.77-3.57 27.79-7.04 7.57-2.91 15.36-5.33 23.22-7.31 6.07-1.53 11.97.58 17.47 3.15 1.6.75 2.67 2.63 4 4z"/></g></svg>