<svg enable-background="new 0 0 400 400" viewBox="0 0 400 400" xmlns="http://www.w3.org/2000/svg"><g fill="#010102"><path d="m135.37 185.32c.48-2.72 1.07-5.34 1.35-7.99.12-1.12-.07-2.55-.7-3.43-4.91-6.88-7.14-14.79-9.53-22.74-1.75-5.82-4.52-11.33-6.98-16.92-.4-.91-1.47-1.63-2.37-2.2-2.69-1.7-5.76-2.92-8.11-4.98-3.92-3.43-7.68-5.03-12.38-.9-1.89-5.22-4.06-9.93-5.11-14.89-.33-1.56 1.93-4.63 3.75-5.53 23.63-11.81 48.37-20.43 74.64-23.97 4.9-.66 10.03.33 15.05.58 6.01.31 12.02.64 18.12.97 2.47-7.2-3.69-10.79-6.34-16.25 5.13-4.13 8.75-10.14 15.43-12.74 3.74-1.46 7.45-3.11 10.91-5.13 11.19-6.53 23.51-8.78 36.14-10.09 4.67-.48 9.29-1.68 13.95-1.86 7.88-.32 15.78-.09 23.99-.09.76 6.52 1.42 12.25 2.09 17.99.19 1.67.4 3.33.56 5 .31 3.24 1.14 6.46-1.7 9.31-1.03 1.04-1.33 3.09-1.43 4.72-.47 7.56-2.13 14.85-5.25 21.72-4.27 9.39-2.79 18.52.61 27.67.27.72.59 1.5 1.11 2.05 4.02 4.17 4.66 9.34 4.97 14.82.46 8.26 1.57 16.48 2.05 24.74.12 2.17-1.23 4.4-1.64 6.64-.3 1.62-.55 3.41-.17 4.97.6 2.48 1.7 4.84 2.68 7.22.8 1.93 1.5 3.72-.45 5.47-.35.31-.28 1.43-.03 2.02 2.83 6.69.91 16.07-4.51 21.21-.58.55-1.52.89-2.34 1.02-10.39 1.59-20.83 2.87-31.16 4.75-5.57 1.02-11 2.89-16.4 4.66-9.41 3.08-19.3 4.98-27.65 10.83-.74.52-2.18.54-3.12.23-6.02-1.97-11.99-4.12-18-6.15-.54-.18-1.31-.17-1.82.07-4.58 2.15-10.43-.52-11.84-5.46-.21-.75-.46-1.51-.52-2.28-.33-3.78-.6-7.57-.93-11.74 5.2-1.42 10.28-3.05 15.47-4.15 7.43-1.58 14.13-4.59 20.59-8.54 9.24-5.65 18.42-11.48 28.81-14.91 1.46-.48 3.17-.19 4.75-.32 1.28-.11 3.62-.22 3.64-.5.16-1.63.4-4.03-.54-4.86-11.68-10.29-12.99-23.85-10.61-37.6 1.35-7.82 3.98-16.1 10.86-21.68.6-.49 1.09-1.12 1.62-1.7 5.99-6.51 5.53-12.53-1.38-18.01-.34-.27-.81-.57-1.19-.54-3.96.35-5.53-2.76-7.6-5.15-4.08-4.71-7.9-9.75-14.37-12.16-1.15 3.05-2.37 5.91-3.26 8.88-.22.75.44 1.94 1 2.7.86 1.15 2.18 1.96 2.96 3.15 3.11 4.74-.02 11.64-5.61 12.48-11.5 1.73-22.97 3.64-34.51 5.05-4.84.59-9.82.1-15.23.1-.87 6.47-1.74 12.72-2.53 18.98-.18 1.44-.1 2.91-.14 4.36-.16 5.33-.86 10.17-3.67 15.23-4.19 7.53-7.11 15.94-7.02 24.92.01.89.06 1.79.16 2.68.06.54.27 1.07.53 2.05 4.82-.85 9.62-1.65 14.41-2.54 10.33-1.93 20.64-3.88 30.96-5.87 1.96-.38 3.44-.15 4.49 1.84 1.11 2.11-.55 2.74-1.65 3.74-3.58 3.22-7.11 6.46-12.37 6.71-1.06.05-2.16 1.05-3.08 1.82-6.02 5.01-11.96 10.12-18.02 15.08-1.34 1.09-2.99 1.96-4.64 2.47-7.04 2.18-14.13 4.22-21.23 6.21-1.23.35-2.86.71-3.86.2-4.48-2.31-8.85-1.2-13.36-.31-1.7.34-3.57-.24-5.37-.37-1.98-.14-4.08-.7-5.94-.26-6.91 1.63-13-.33-19.46-2.7-6.68-2.45-9.99-6.27-10.28-13.25-.18-4.23-.85-8.45-1.42-12.66-.28-2.06.63-3.18 2.5-3.01 4.39.4 8.81.84 13.13 1.72 4.47.91 8.84 2.35 13.24 3.6.83.24 1.77.5 2.36 1.07 2.7 2.56 5.9 3.37 9.94 2.73zm130.18-18.14c5.92.7 14.97-3.54 17-7.65 4.78-9.68.76-24.04-8.51-30.18-2.32 1.48-4.74 2.9-7 4.52-.7.5-1.42 1.54-1.43 2.34-.1 10.27-.06 20.54-.06 30.97zm-109.47-49.34c-5.64 2.9-9.33 8.61-9.29 13.45.01.63.4 1.25.55 1.89.63 2.56 1.67 5.11 1.77 7.7.18 4.9-.47 9.84-.24 14.74.16 3.39 1.08 6.77 2 10.07.2.73 1.79 1.38 2.8 1.48.67.06 1.86-.78 2.09-1.46 1.17-3.48 2.82-7.01 2.99-10.59.42-9.02.38-18.09.02-27.12-.12-3.31-1.68-6.54-2.69-10.16zm115.01-33.85c4.44.06 7.18-2.46 7.34-6.78.12-3.45-4.64-8.71-8.08-7.68-2.98.89-6.73 3.67-7.51 6.37-1.27 4.35 3.21 8.01 8.25 8.09zm-122.81 103.41c.76-.52 2.8-1.24 3.36-2.57.4-.96-.95-2.94-1.94-4.1-.81-.95-2.19-1.67-3.44-1.92-1.2-.25-2.89-.18-3.75.51-.98.78-1.78 2.41-1.77 3.67.02 2.6 3.06 4.45 7.54 4.41zm72.82-101.09c.25-.36.51-.71.76-1.07-2.09-2.01-4.19-4.03-6.96-6.69v6.85c2.13.31 4.16.61 6.2.91z"/><path d="m152.78 218.74c2.53 1.03 4.57 1.9 6.64 2.68 3.01 1.13 6.46 1.85 4.25 6.5-.32.68.33 1.92.72 2.81 1.3 2.97 2.44 6.04 4.08 8.81 6.42 10.79 7.82 22.8 9.42 34.93 1.45 10.99.73 21.88.54 32.82-.01.85-.05 2.01-.57 2.49-2.97 2.75-3.12 5.89-1.99 9.51.96 3.08-.03 5.72-3.2 7.72 3.71 3.39 1.34 6.57.18 10.04-4.37 13.08-14.5 22.12-22.49 32.66-.2.26-.45.6-.73.67-6.06 1.52-12.12 3.04-18.21 4.46-.47.11-1.23-.44-1.65-.88-10.56-10.96-20.16-22.59-24.12-37.72-4.09-15.62-4.96-31.63-4.05-47.62.38-6.8 3.29-13.41 4.48-20.21 1.71-9.78 1.78-19.58-1.33-29.21-1-3.09.26-5.26 4.56-8.14 2.42-1.62 4.96-1.4 7.17.28 3.12 2.36 6.08 4.93 9.05 7.47 2.74 2.34 4.1 5.33 4.81 8.92 1.7 8.64.21 17.14-.48 25.69-.67 8.23-.02 12.02 11.49 9.93 2.19-.4 4.39-1.63 6.19-3 3.65-2.76 7.2-5.7 10.48-8.9 3.74-3.65 4.2-9.33 1.65-13.85-.43-.76-1-1.69-.91-2.47.5-4.5-2-7.81-4.01-11.44-3.38-6.08-6.59-12.34-4.18-19.69.55-1.67 1.36-3.25 2.21-5.26zm-28.32 102.75c.09 1.56 0 3.16.29 4.67 2.05 10.48 6.65 14.88 17.32 12.55 3.12-.68 5.51-2.23 6.74-5.36 2.32-5.91 4.94-11.71 7-17.71.99-2.88 1.5-6.13 1.3-9.16-.4-6.07-6.62-8.78-11.68-5.34-5.44 3.7-10.7 7.7-16.29 11.15-3.64 2.26-5.74 4.79-4.68 9.2z"/><path d="m238.4 248.05c4.12 6.44 6.41 12.93 6.55 20.02.14 7.04.03 14.09-.14 21.14-.05 1.98-.42 4.04-1.11 5.9-3.34 8.98 3.77 13.45 10.07 13.08 5.09-.29 10.12-1.62 15.16-2.59 2.27-.44 3.64-1.92 4.24-4.22 2.87-11.04 3.58-22.27 3.05-33.61-.05-1.02-.53-2.24-1.23-2.97-4.63-4.77-4.97-10.87-5.05-16.9-.02-1.43 1.98-2.88 2.25-2.72 7.64 6.9 15.68 13.41 22.68 20.9 2.38 2.55 2.55 7.5 3 11.44.85 7.44 1.22 14.93 1.67 22.41.06 1-.61 2.04-.91 3.08-.9 3.16-2.63 6.36-2.53 9.5.48 15.43-3.39 29.91-8.88 44.07-2.87 7.4-7.57 13.45-14.79 17.14-1.51.77-3.39 1.2-5.08 1.15-5.92-.19-11.85-.55-17.74-1.12-1.31-.13-2.82-1.11-3.72-2.15-2.92-3.38-5.62-6.96-8.37-10.49-3.81-4.9-5.92-10.37-6.13-16.67-.61-17.78-1.45-35.56-2.1-53.34-.15-4.02-.17-8.08.28-12.07.58-5.12-.34-9.77-3.11-14.04-1.17-1.8-.73-3.03.44-4.73 1.14-1.67 1.37-3.95 2.17-5.88.35-.86.99-1.79 1.76-2.25 2.39-1.44 4.89-2.66 7.57-4.08zm16.21 109.56c6-5.17 11.68-10.03 17.3-14.96.62-.55 1.07-1.41 1.35-2.21 2.01-5.65-.15-10.1-6.24-12.39-5.84-2.2-11.75-4.18-17.66-6.19-.62-.21-1.59-.21-2.07.14-3.2 2.31-5.32 5.08-4.91 9.47.96 10.1 5.48 18.43 12.23 26.14z"/><path d="m162.35 25.77c6.14.68 11.93 1.18 17.68 1.98 5.62.78 8.75 3.52 9.46 7.61.3 1.73-.09 2.64-1.94 3.17-5.26 1.5-10.4 3.42-15.7 4.74-4.4 1.1-7.97 3.25-11.07 6.46-2.41 2.49-5.2 4.63-7.41 7.27-1.48 1.77-2.54 4.04-3.27 6.26-.85 2.6-2.6 4.07-5.38 3.8-.93-.09-2.09-.25-2.8.19-7.18 4.42-15 4.26-22.9 3.28-2.65-.33-5.22-1.32-7.86-1.62-2.31-.26-3.12-1.45-3.02-3.49.16-3.33-1.27-5.97-3.19-8.54-2.39-3.18-1.74-9.93.85-12.94 2.59-3.02 5.44-5.03 9.73-4.59 10.48 1.08 19.52-3.75 28.87-7.28 4.49-1.7 8.94-3.5 13.44-5.15 1.53-.56 3.18-.81 4.51-1.15z"/></g><path d="m377.9 391.2c-.2.3-.4.5-.6.8-.7-.6-1.4-1-2.2-1.5.2-.3.4-.5.5-.8.6.4 1.4.8 2.3 1.5zm-1.8 6.1c-.2-.2-.5-.4-.9-.6.4-.6.8-1.2 1.2-1.9s.7-1.3.9-1.9c.3.3.5.5.8.7-.7 1.3-1.4 2.6-2 3.7zm2.2-9c-.3.3-.5.5-.6.8-.6-.6-1.3-1.1-2-1.5.3-.3.5-.5.6-.7.6.5 1.3.9 2 1.4zm.3.2v-.9h2 4.5c-.3 1.3-.6 2.5-1 3.6s-.9 2.1-1.4 3c.4.5 1 1 1.6 1.4s1.2.8 1.9 1.1c-.3.2-.5.4-.8.8-.4-.3-1-.7-1.6-1.2s-1.2-1.1-1.6-1.6c-.5.6-1.1 1.1-1.7 1.6s-1.4.9-2.1 1.4c-.1-.3-.3-.5-.7-.8.6-.2 1.2-.5 1.9-1s1.4-1.1 2-1.8c-.5-.8-.9-1.6-1.2-2.5s-.6-2-.8-3.2c-.4.1-.7.1-1 .1zm2.5 2.7c.3 1 .7 1.7 1 2.2.3-.5.6-1.1 1-2s.6-1.9.9-3h-3.2-.4c.1.9.3 1.8.7 2.8z" fill="#fcfbfa"/><path d="m396.5 388.5v1.5 3.6h1.5v.9c-.4 0-1 0-1.7 0h-7.9c-.5 0-.9 0-1.2 0v-.9h1.3v-3.5c0-.7 0-1.2 0-1.6h2.4c0-.8 0-1.4 0-1.7h1c0 .3-.1.8-.1 1.7h1.5c0-.8 0-1.4 0-1.7h1c0 .3-.1.9-.1 1.7zm-8.2 9.2c-.2-.3-.5-.5-.8-.8.8-.3 1.4-.6 1.9-.9s1-.7 1.4-1.1c.3.3.6.5.9.8-1.6 1-2.8 1.6-3.4 2zm2.6-6.8v-1.6h-1.5v1.6zm0 2.7v-1.9h-1.5v1.9zm2.4-2.7v-1.6h-1.5v1.6zm0 2.7v-1.9h-1.5v1.9zm.2 2 .7-.8c.4.2.9.5 1.6.8s1.3.7 1.8 1c-.3.3-.5.5-.8.8-.4-.3-1.5-1-3.3-1.8zm2-4.7v-1.6h-1.4v1.6zm0 2.7v-1.9h-1.4v1.9z" fill="#fcfbfa"/></svg>